<?xml version="1.0" standalone="no"?>
<!DOCTYPE svg PUBLIC "-//W3C//DTD SVG 20010904//EN"
 "http://www.w3.org/TR/2001/REC-SVG-20010904/DTD/svg10.dtd">
<svg version="1.0" xmlns="http://www.w3.org/2000/svg"
 width="535.000000pt" height="535.000000pt" viewBox="0 0 535.000000 535.000000"
 preserveAspectRatio="xMidYMid meet">
<metadata>
Created by potrace 1.14, written by Peter Selinger 2001-2017
</metadata>
<g transform="translate(0.000000,535.000000) scale(0.100000,-0.100000)"
fill="#000000" stroke="none">
<path d="M4537 5343 c-1 0 -38 -4 -82 -7 -44 -3 -91 -8 -105 -11 -14 -3 -45
-8 -70 -11 -73 -10 -268 -63 -370 -101 -209 -77 -432 -204 -610 -347 -158
-126 -347 -337 -455 -506 l-29 -45 -195 0 c-168 0 -280 -6 -349 -20 -9 -1 -55
-10 -102 -19 -118 -22 -315 -85 -440 -140 -512 -227 -924 -655 -1128 -1171
-65 -164 -121 -378 -137 -525 -4 -36 -9 -78 -11 -95 -6 -41 -5 -311 1 -360 2
-22 7 -65 10 -95 7 -61 41 -239 55 -285 140 -454 347 -787 661 -1061 287 -252
666 -436 1020 -498 80 -14 107 -18 214 -31 125 -15 431 -1 570 26 28 6 61 12
75 15 55 10 209 55 275 80 39 14 84 31 100 37 57 20 250 123 335 177 184 119
369 285 516 465 38 46 152 212 182 263 148 259 218 467 277 822 10 61 14 402
5 475 -15 128 -21 170 -26 187 -3 10 -7 30 -10 45 -33 190 -155 497 -276 691
-173 277 -446 547 -721 712 -75 45 -86 54 -75 67 7 9 293 296 636 639 343 343
620 625 616 625 -14 2 -355 4 -357 2z"/>
</g>
</svg>
